 http://www.imdb.com/title/tt2184339/


A family is held hostage for harboring the target of a murderous syndicate during the Purge, a 12-hour period in which any and all crime is legalized. 



Director:
 James DeMonaco 

Writer:
 James DeMonaco 

Stars:
 Ethan Hawke, Lena Headey, Max Burkholder 

Genres:
  Horror |  Sci-Fi |  Thriller 



General
 Complete name                            : The.Purge.2013.R6.720p.WEBRip-0HKAY.rmvb
 Format                                   : RealMedia
 File size                                : 490 MiB
 Duration                                 : 1h 25mn
 Overall bit rate                         : 792 Kbps

 Video
 ID                                       : 1
 Format                                   : RealVideo 4
 Codec ID                                 : RV40
 Codec ID/Info                            : Based on AVC (H.264), Real Player 9
 Duration                                 : 1h 25mn
 Bit rate                                 : 696 Kbps
 Width                                    : 1 280 pixels
 Height                                   : 720 pixels
 Display aspect ratio                     : 16:9
 Frame rate                               : 23.976 fps
 Bits/(Pixel*Frame)                       : 0.031
 Stream size                              : 424 MiB (87%)

 Audio
 ID                                       : 0
 Format                                   : AAC
 Format/Info                              : Advanced Audio Codec
 Format profile                           : LC
 Codec ID                                 : raac
 Codec ID/Info                            : Real Player 9
 Duration                                 : 1h 25mn
 Bit rate                                 : 96.0 Kbps
 Channel(s)                               : 2 channels
 Sampling rate                            : 44.1 KHz
 Bit depth                                : 16 bits
 Compression mode                         : Lossy
 Stream size                              : 58.6 MiB (12%)




//bayimg.com/cANmHAAEF
//bayimg.com/CANMjAaeF
//bayimg.com/CanmKaAEF